PathFileType	4	(X/Y/Z)	C:\Users\Basilio\Documents\Thesis Gigler\squatting_fais\c3dfiles\077\SLS_back_pre4\markers_experimental.trc
DataRate	CameraRate	NumFrames	NumMarkers	Units	OrigDataRate	OrigDataStartFrame	OrigNumFrames
200.000000	200.000000	4	60	mm	200.000000	701	1402
Frame#	Time	FHD			LBHD			RBHD			C7			T10			CLAV			LSHO			LUUPA			LMUPA			LDUPA			LLEP			LMEP			LRAD			LUL			LRFIN			RSHO			RUPA1			RMUPA			RDUPA			RLEP			RMEP			RRAD			RUL			RUFIN			LASI			RASI			USACR			LSACR			RSACR			LTHI1			LTHI2			LTHI3			LTHI4			LLFC			LMFC			LTIB1			LTIB2			LTIB3			LTIB4			LLMAL			LHEE			LMT1			LMT2			LMT5			RTHI			RTHI2			RTHI3			RTHI4			RLFC			RMFC			RTIB1			RTIB2			RTIB3			RTIB4			RLMAL			RMMAL			RHEE			RMT1			RMT2			RMT5			
		X1	Y1	Z1	X2	Y2	Z2	X3	Y3	Z3	X4	Y4	Z4	X5	Y5	Z5	X6	Y6	Z6	X7	Y7	Z7	X8	Y8	Z8	X9	Y9	Z9	X10	Y10	Z10	X11	Y11	Z11	X12	Y12	Z12	X13	Y13	Z13	X14	Y14	Z14	X15	Y15	Z15	X16	Y16	Z16	X17	Y17	Z17	X18	Y18	Z18	X19	Y19	Z19	X20	Y20	Z20	X21	Y21	Z21	X22	Y22	Z22	X23	Y23	Z23	X24	Y24	Z24	X25	Y25	Z25	X26	Y26	Z26	X27	Y27	Z27	X28	Y28	Z28	X29	Y29	Z29	X30	Y30	Z30	X31	Y31	Z31	X32	Y32	Z32	X33	Y33	Z33	X34	Y34	Z34	X35	Y35	Z35	X36	Y36	Z36	X37	Y37	Z37	X38	Y38	Z38	X39	Y39	Z39	X40	Y40	Z40	X41	Y41	Z41	X42	Y42	Z42	X43	Y43	Z43	X44	Y44	Z44	X45	Y45	Z45	X46	Y46	Z46	X47	Y47	Z47	X48	Y48	Z48	X49	Y49	Z49	X50	Y50	Z50	X51	Y51	Z51	X52	Y52	Z52	X53	Y53	Z53	X54	Y54	Z54	X55	Y55	Z55	X56	Y56	Z56	X57	Y57	Z57	X58	Y58	Z58	X59	Y59	Z59	X60	Y60	Z60	

702	3.505	15.42984580993653	1498.612915039063	-1080.090576171875	-133.4385833740235	1396.18359375	-1138.80078125	-129.7584838867188	1393.59228515625	-993.971130371094	-191.5861511230469	1292.828491210938	-1073.338012695313	-357.0756835937501	1029.409301757813	-1025.4541015625	-56.68324279785158	1185.617309570313	-1069.577392578125	-81.5656204223633	1255.909301757813	-1226.289794921875	52.08176040649415	1207.423095703125	-1359.439331054688	86.30199432373048	1231.248413085938	-1334.143676757813	116.9779968261719	1201.23974609375	-1377.5966796875	181.5708923339844	1206.19873046875	-1383.954345703125	186.4571838378907	1134.264770507813	-1361.71875	489.1725158691407	1215.347534179688	-1309.224487304688	483.6128234863282	1223.704345703125	-1388.535400390625	585.6082153320314	1239.6484375	-1329.019897460938	-70.11978149414064	1266.24609375	-928.0999755859377	67.61500549316408	1232.484130859375	-797.2673950195315	98.43354034423831	1252.248046875	-829.7967529296877	137.05078125	1227.66845703125	-789.045837402344	203.701156616211	1227.151611328125	-794.5058593750002	202.873275756836	1150.6708984375	-812.6889648437502	489.4003295898439	1222.776245117188	-893.1915283203127	501.1300659179689	1235.42529296875	-813.6328735351565	581.5271606445314	1247.761108398438	-894.8965454101565	-301.6558532714844	797.088806152344	-1176.067260742188	-314.5061645507813	756.9044189453126	-903.9916992187502	-423.9902343750001	956.3599853515627	-1019.830993652344	-447.4700317382814	945.7839355468752	-1053.20263671875	-451.5240173339845	929.6824951171877	-998.3491821289065	-280.4997863769532	679.9282836914064	-1245.536010742188	-204.642562866211	643.0380859375001	-1236.010620117188	-170.6432647705078	676.5769653320314	-1224.280395507813	-191.2779998779297	585.0095825195314	-1227.46484375	-83.9136199951172	483.3604125976564	-1179.345458984375	-87.53456878662111	483.2789611816407	-1050.803588867188	-143.9325714111328	289.0878295898438	-1071.131713867188	-189.570053100586	249.5614471435547	-1139.557983398438	-167.3386840820313	240.9965362548829	-1099.080688476563	-217.6085815429688	188.1528625488282	-1058.487548828125	-324.2121887207032	105.6033554077149	-1100.16845703125	-395.9232177734376	83.28855895996095	-1044.535278320313	-186.7521362304688	53.85045242309572	-1020.759521484375	-181.1823120117188	57.24477767944337	-1063.635009765625	-300.5868530273438	123.8005447387696	-1013.553771972656	-463.5082397460939	475.4902343750001	-861.1457519531252	-431.0882263183595	412.9266052246095	-856.4802856445315	-397.9693908691407	407.4202880859376	-860.7852783203127	-473.3321533203126	345.9632568359376	-880.0545043945315	-492.9756774902345	319.9115600585938	-890.509460449219	-471.2783203125001	291.6920776367188	-1018.956481933594	-612.6161499023439	315.5450439453126	-948.8391723632815	-662.6055908203126	407.6368103027345	-926.4244384765627	-678.0067138671876	372.2579345703126	-953.6585083007815	-701.2667236328126	392.6912536621095	-1004.816772460938	-838.5142211914065	533.3251342773439	-997.0838012695315	-815.1188964843752	510.8604125976564	-1084.83447265625	-809.8523559570315	606.3416748046876	-1041.766235351563	-952.678894042969	444.2486877441407	-1109.338012695313	-966.5684814453127	446.0317993164064	-1070.4033203125	-993.836608886719	472.6961975097657	-1033.200927734375	
703	3.51	17.06831359863282	1496.972900390625	-1079.553344726563	-132.8818054199219	1394.713256835938	-1138.608276367188	-128.9933166503907	1392.47509765625	-994.047302246094	-190.332275390625	1291.593872070313	-1072.986083984375	-356.6023559570313	1028.86669921875	-1025.29541015625	-56.04627227783205	1184.24169921875	-1069.593139648438	-81.11959838867189	1254.82421875	-1226.357666015625	52.78914642333986	1206.3671875	-1359.504028320313	87.15292358398439	1230.344970703125	-1334.122314453125	117.8192214965821	1200.019897460938	-1377.648315429688	182.9384918212891	1204.829223632813	-1383.882080078125	187.2409210205078	1132.9677734375	-1361.836547851563	490.0010986328126	1214.246459960938	-1309.55322265625	483.7480773925782	1222.462890625	-1388.938232421875	586.1101074218751	1238.205444335938	-1329.6962890625	-69.47056579589845	1265.072387695313	-928.0420532226565	68.27691650390626	1231.187622070313	-797.374450683594	99.33042144775393	1251.333984375	-829.7673339843752	137.7743225097657	1226.551879882813	-789.1541137695315	204.524642944336	1226.1796875	-794.7010498046877	203.5506134033204	1149.541381835938	-812.757263183594	489.9168701171876	1221.7802734375	-893.5288696289065	501.7203674316407	1234.458984375	-813.9355468750002	582.1344604492189	1246.635620117188	-895.152038574219	-301.3491821289063	796.4221191406252	-1175.72802734375	-314.6083679199219	756.2396850585939	-903.6491699218752	-423.8070678710939	955.8034667968752	-1019.717834472656	-447.4388122558595	945.1512451171877	-1053.035522460938	-451.5093994140626	928.972595214844	-998.3475341796877	-279.9873657226563	679.5437011718751	-1245.057250976563	-204.294906616211	642.7792968750001	-1235.521850585938	-170.1866607666016	676.4221191406251	-1223.410400390625	-190.9488830566407	585.0488281250001	-1227.555908203125	-83.4725799560547	483.1565246582032	-1178.2958984375	-87.52869415283205	483.137664794922	-1049.791625976563	-143.797607421875	289.2121887207032	-1070.304443359375	-189.2159576416016	249.5855560302735	-1138.655151367188	-167.0930786132813	240.9506988525391	-1098.258544921875	-217.6124725341797	188.1648559570313	-1057.950439453125	-324.1011657714844	105.7537460327149	-1099.967651367188	-395.933074951172	83.2354202270508	-1044.536376953125	-186.7756652832032	53.80210876464845	-1020.640686035156	-181.2453155517578	57.25004196166994	-1063.479125976563	-300.6430053710938	123.6704940795899	-1013.281066894531	-463.8060913085939	475.0139160156251	-861.4604492187502	-431.3301391601564	412.3993530273439	-856.4760742187502	-398.349090576172	406.6618041992189	-860.9729614257815	-473.7157592773439	345.6231689453126	-880.176452636719	-493.2300415039064	319.3775024414063	-890.6702880859377	-471.8645629882814	291.3692932128907	-1019.251708984375	-612.9853515625001	315.2027282714844	-949.057556152344	-662.8568725585939	407.4375000000001	-926.543884277344	-678.3837890625001	372.1523132324219	-953.7902832031252	-699.3127441406251	391.872283935547	-1005.816528320313	-838.5244750976565	533.4440307617189	-997.0426025390627	-815.1444091796877	510.9300537109376	-1084.784423828125	-809.6506958007815	606.5232543945314	-1041.56689453125	-953.1430664062502	444.7893981933595	-1109.781372070313	-966.9622192382815	446.6316833496095	-1070.44384765625	-994.0264282226565	473.2565002441407	-1033.238525390625	
704	3.515	17.79803848266602	1495.798828125	-1079.42578125	-131.8043365478516	1393.187255859375	-1138.425659179688	-128.1044158935547	1391.0810546875	-993.7078857421877	-189.6520080566407	1290.591918945313	-1072.876098632813	-356.2812194824219	1028.170166015625	-1025.102172851563	-55.3100051879883	1183.178100585938	-1069.405151367188	-80.44242095947267	1254.118530273438	-1226.167358398438	52.81025314331056	1205.639404296875	-1359.529663085938	87.2138137817383	1229.29248046875	-1334.197143554688	118.8149108886719	1198.959716796875	-1377.637817382813	183.4272003173828	1203.939086914063	-1384.01611328125	187.7956848144532	1131.998168945313	-1362.082763671875	490.6253356933595	1213.251098632813	-1310.0830078125	484.3464355468751	1221.347045898438	-1389.35546875	586.5043334960939	1237.089233398438	-1330.18603515625	-68.89331054687501	1263.97900390625	-928.0801391601565	69.01792907714845	1230.307861328125	-797.3605957031252	100.1882247924805	1250.183227539063	-830.1229248046877	138.4701538085938	1225.412475585938	-789.3193359375002	205.1192626953126	1224.99072265625	-794.8645019531252	204.3291931152344	1148.385498046875	-813.0776977539065	490.8615112304689	1220.846801757813	-894.0029907226565	502.1232299804689	1233.124755859375	-814.701354980469	582.7727050781251	1245.585571289063	-895.5864868164065	-300.7821044921876	796.0701293945315	-1175.4873046875	-314.8232421875001	755.4691162109376	-903.5027465820315	-423.6705322265626	955.182312011719	-1019.609008789063	-447.1312866210939	944.7578125000002	-1053.068969726563	-451.3879699707032	928.465759277344	-998.284606933594	-279.7044372558594	679.0315551757814	-1244.568481445313	-203.7984924316407	642.9595947265626	-1234.735473632813	-169.6716766357422	676.2371215820314	-1222.609375	-190.5392456054688	584.7402954101564	-1225.792236328125	-83.04380035400392	483.1155700683595	-1177.2294921875	-87.3936233520508	483.2702636718751	-1048.572875976563	-143.73095703125	289.2810668945313	-1069.468017578125	-188.8305969238282	249.5943145751954	-1138.0185546875	-166.967529296875	241.1210937500001	-1097.716552734375	-217.6435546875001	188.0224304199219	-1057.367065429688	-323.9553833007813	105.8376159667969	-1099.786743164063	-395.9402465820314	83.29134368896486	-1044.446655273438	-186.7132720947266	53.79545211791994	-1020.499694824219	-181.1721954345703	57.22348785400392	-1063.3525390625	-300.7163085937501	123.5955886840821	-1012.944580078125	-464.2207946777345	474.386688232422	-861.6516723632815	-431.8246459960939	411.5140075683595	-856.6580200195315	-398.4612731933595	406.3075256347657	-861.0064086914065	-474.0795288085939	345.0156250000001	-880.4212036132815	-493.6808471679689	318.6945190429688	-890.9130859375002	-472.3087463378907	290.8146362304688	-1019.376647949219	-613.3635253906251	314.9883728027344	-949.2119140625002	-663.1207885742189	407.1374511718751	-926.5881347656252	-678.6041870117189	371.9715881347657	-954.0086059570315	-699.3494873046876	391.5433044433595	-1006.057495117188	-838.472351074219	533.5916748046876	-997.0168457031252	-815.1577758789065	511.0998535156251	-1084.827026367188	-809.3920898437502	606.8258056640626	-1041.256225585938	-953.3338623046877	445.4024963378907	-1109.74755859375	-967.2618408203127	447.4089355468751	-1070.846313476563	-994.1636962890627	473.8496093750001	-1033.264404296875	
705	3.52	18.70525169372559	1494.636352539063	-1079.321411132813	-131.0462036132813	1392.546264648438	-1138.315673828125	-127.3816833496094	1390.089111328125	-993.8648681640627	-188.9961395263672	1289.53857421875	-1072.743286132813	-355.9557800292969	1027.365234375	-1024.843872070313	-54.59755706787111	1181.9140625	-1069.288452148438	-79.96692657470705	1252.814819335938	-1225.960205078125	53.49003219604494	1204.30615234375	-1359.447509765625	87.65093231201173	1228.292236328125	-1334.14111328125	118.7858505249024	1198.002319335938	-1377.815673828125	183.27392578125	1202.828857421875	-1384.044677734375	188.0526885986328	1131.216430664063	-1362.407958984375	490.8923339843751	1211.957275390625	-1310.584228515625	485.1145629882814	1220.312255859375	-1389.8623046875	587.0159301757814	1236.021484375	-1330.677001953125	-68.19403076171876	1262.900756835938	-928.0549926757815	69.7949905395508	1229.2744140625	-797.3991699218752	100.6719131469727	1249.090454101563	-829.9887695312502	139.1817169189453	1224.324096679688	-789.393493652344	205.7807769775391	1223.79052734375	-794.9500732421877	205.1417541503907	1147.435302734375	-813.2532348632815	491.4808654785157	1219.85986328125	-894.430847167969	502.8973083496095	1232.0341796875	-814.9473876953127	583.4114990234376	1244.057861328125	-895.9204101562502	-300.7816162109376	795.325134277344	-1175.352905273438	-315.0451965332032	754.7821655273439	-903.3665771484377	-423.3929443359376	954.740661621094	-1019.560974121094	-446.8833312988282	944.368103027344	-1053.024047851563	-451.1669311523439	928.100036621094	-998.2915649414065	-279.0591430664063	678.7326660156251	-1244.0927734375	-203.3876495361329	642.6127319335939	-1234.064697265625	-169.076889038086	675.8795166015626	-1221.8203125	-189.954330444336	584.5800781250001	-1225.846313476563	-82.39327239990236	482.7590942382814	-1176.271606445313	-87.32298278808595	483.4109497070314	-1047.4931640625	-143.704833984375	289.1361083984376	-1068.67822265625	-188.7175750732422	249.6964111328126	-1137.50439453125	-166.7928771972657	241.0989990234376	-1097.14306640625	-217.6683197021485	187.7963409423828	-1056.905517578125	-323.8392333984376	105.8527297973633	-1099.640014648438	-395.9530639648439	83.26955413818361	-1044.445678710938	-186.7537231445313	53.71520996093751	-1020.427551269531	-181.2032928466797	57.29013824462892	-1063.25	-300.7338256835938	123.0867080688477	-1013.059936523438	-464.4784545898439	473.9025878906251	-861.8303222656252	-432.1744384765626	410.9835815429689	-856.885437011719	-398.8127746582032	405.7438049316407	-861.176696777344	-474.3619079589845	344.3411560058594	-880.6343994140627	-493.898651123047	318.3114929199219	-891.2276000976565	-472.4761047363282	290.0986328125001	-1019.891906738281	-613.7653808593751	314.7499084472657	-949.3133544921877	-663.4328613281251	406.7905273437501	-926.7591552734377	-678.9040527343751	371.7212829589844	-954.143249511719	-705.8955078125001	393.5066528320314	-1003.083923339844	-838.4517211914065	533.6856079101564	-997.003112792969	-815.1570434570315	511.1746215820314	-1084.851684570313	-809.1187744140627	607.1065673828126	-1041.204467773438	-953.4451293945315	445.9130249023439	-1109.606323242188	-967.5241699218752	447.9878845214845	-1071.017944335938	-994.3999633789065	474.5238647460939	-1033.28662109375	
